<?xml version="1.0" encoding="UTF-8" standalone="no"?>
<!-- Created with Inkscape (http://www.inkscape.org/) -->

<svg
   width="280.88959mm"
   height="109.48032mm"
   viewBox="0 0 280.88959 109.48032"
   version="1.1"
   id="svg1"
   xml:space="preserve"
   inkscape:version="1.3 (0e150ed6c4, 2023-07-21)"
   sodipodi:docname="wordle_wrong2_embeds.svg"
   xmlns:inkscape="http://www.inkscape.org/namespaces/inkscape"
   xmlns:sodipodi="http://sodipodi.sourceforge.net/DTD/sodipodi-0.dtd"
   xmlns="http://www.w3.org/2000/svg"
   xmlns:svg="http://www.w3.org/2000/svg"><sodipodi:namedview
     id="namedview1"
     pagecolor="#424242"
     bordercolor="#000000"
     borderopacity="0.25"
     inkscape:showpageshadow="2"
     inkscape:pageopacity="0.0"
     inkscape:pagecheckerboard="0"
     inkscape:deskcolor="#d1d1d1"
     inkscape:document-units="mm"
     inkscape:zoom="0.49764326"
     inkscape:cx="349.64806"
     inkscape:cy="173.81929"
     inkscape:window-width="1465"
     inkscape:window-height="1283"
     inkscape:window-x="1627"
     inkscape:window-y="91"
     inkscape:window-maximized="1"
     inkscape:current-layer="layer1" /><defs
     id="defs1" /><g
     inkscape:label="Layer 1"
     inkscape:groupmode="layer"
     id="layer1"
     transform="translate(-234.93024,-75.14727)"><path
       d="m 322.3303,177.47875 v -6.8141 h -4.82965 v -5.92946 h 10.9982 v 16.35384 q -2.03227,1.74537 -4.49491,2.65392 -2.43873,0.88463 -5.2361,0.88463 -6.93365,0 -10.71129,-4.80573 -3.77764,-4.82965 -3.77764,-13.69993 0,-9.01375 3.80155,-13.77166 3.82546,-4.75792 11.02211,-4.75792 2.15182,0 4.23191,0.62164 2.0801,0.59773 3.89719,1.74536 v 7.81829 q -1.48237,-1.91273 -3.419,-2.8691 -1.91274,-0.98027 -4.20801,-0.98027 -4.01674,0 -6.00119,3.03646 -1.98446,3.01255 -1.98446,9.1572 0,5.95337 1.91273,9.06156 1.91273,3.10818 5.57083,3.10818 1.09982,0 1.91273,-0.19127 0.81291,-0.21518 1.315,-0.62164 z m 14.01075,6.45547 v -35.69633 h 7.05319 v 29.47996 h 15.08667 v 6.21637 z m 38.82843,-29.24087 -3.32337,14.60848 h 6.67065 z m -4.30364,-6.45546 h 8.63119 l 9.63538,35.69633 h -7.05319 l -2.19964,-8.82247 h -9.44411 l -2.15182,8.82247 h -7.05319 z m 31.24923,20.03585 q -5.33173,-2.03228 -7.22055,-4.25583 -1.88882,-2.24746 -1.88882,-6.0251 0,-4.85355 3.10818,-7.62701 3.10819,-2.77346 8.53556,-2.77346 2.46264,0 4.92528,0.57382 2.46264,0.54991 4.87747,1.64973 v 6.88583 q -2.27137,-1.60191 -4.61447,-2.43873 -2.34309,-0.83682 -4.63837,-0.83682 -2.55828,0 -3.9211,1.02809 -1.36282,1.02809 -1.36282,2.94082 0,1.48237 0.98028,2.46264 1.00418,0.95637 4.16019,2.12792 l 3.03646,1.14764 q 4.30364,1.578 6.33592,4.18409 2.03227,2.6061 2.03227,6.57501 0,5.40347 -3.20382,8.08129 -3.17992,2.65391 -9.63538,2.65391 -2.65391,0 -5.33174,-0.64554 -2.65391,-0.62164 -5.14046,-1.86491 v -7.29229 q 2.82128,2.00837 5.45128,2.98864 2.65392,0.98028 5.2361,0.98028 2.6061,0 4.04064,-1.17155 1.43455,-1.19546 1.43455,-3.32337 0,-1.60191 -0.95636,-2.79737 -0.95637,-1.21936 -2.77346,-1.91273 z m 29.47996,0 q -5.33173,-2.03228 -7.22056,-4.25583 -1.88882,-2.24746 -1.88882,-6.0251 0,-4.85355 3.10819,-7.62701 3.10819,-2.77346 8.53556,-2.77346 2.46264,0 4.92528,0.57382 2.46264,0.54991 4.87746,1.64973 v 6.88583 q -2.27136,-1.60191 -4.61446,-2.43873 -2.34309,-0.83682 -4.63837,-0.83682 -2.55828,0 -3.9211,1.02809 -1.36282,1.02809 -1.36282,2.94082 0,1.48237 0.98028,2.46264 1.00418,0.95637 4.16018,2.12792 l 3.03646,1.14764 q 4.30365,1.578 6.33592,4.18409 2.03228,2.6061 2.03228,6.57501 0,5.40347 -3.20382,8.08129 -3.17992,2.65391 -9.63538,2.65391 -2.65392,0 -5.33174,-0.64554 -2.65391,-0.62164 -5.14046,-1.86491 v -7.29229 q 2.82127,2.00837 5.45128,2.98864 2.65391,0.98028 5.2361,0.98028 2.60609,0 4.04064,-1.17155 1.43455,-1.19546 1.43455,-3.32337 0,-1.60191 -0.95637,-2.79737 -0.95636,-1.21936 -2.77345,-1.91273 z"
       id="text5"
       style="font-weight:bold;font-size:48.9659px;font-family:'Meslo LG L';-inkscape-font-specification:'Meslo LG L, Bold';fill:#f8f8f2;stroke-width:2;stroke-linecap:round;stroke-linejoin:round"
       aria-label="GLASS" /><g
       id="g10"><rect
         style="fill:#ffffff;stroke:#272822;stroke-width:2;stroke-linecap:round;stroke-linejoin:round"
         id="rect1"
         width="45.958408"
         height="45.958408"
         x="235.93024"
         y="76.14727" /><path
         d="m 256.56835,101.13783 q -4.90199,-1.868476 -6.63857,-3.912805 -1.73658,-2.066311 -1.73658,-5.539472 0,-4.462352 2.85766,-7.012268 2.85766,-2.549916 7.84758,-2.549916 2.26415,0 4.5283,0.527569 2.26415,0.505587 4.48434,1.51676 v 6.330825 q -2.0883,-1.472796 -4.24253,-2.242167 -2.15424,-0.769371 -4.26452,-0.769371 -2.35208,0 -3.60505,0.945227 -1.25298,0.945228 -1.25298,2.70379 0,1.362886 0.90127,2.264149 0.92324,0.879282 3.82487,1.956401 l 2.79172,1.055138 q 3.95676,1.450814 5.82524,3.84686 1.86847,2.39604 1.86847,6.04505 0,4.96794 -2.94559,7.42993 -2.92361,2.44001 -8.85876,2.44001 -2.44001,0 -4.902,-0.59352 -2.44,-0.57153 -4.72613,-1.7146 v -6.70452 q 2.59388,1.84649 5.0119,2.74776 2.44001,0.90126 4.81407,0.90126 2.39604,0 3.71496,-1.07712 1.31892,-1.0991 1.31892,-3.0555 0,-1.4728 -0.87928,-2.5719 -0.87928,-1.12108 -2.54992,-1.75856 z"
         id="text6"
         style="font-weight:bold;font-size:45.0192px;font-family:'Meslo LG L';-inkscape-font-specification:'Meslo LG L, Bold';stroke-width:2;stroke-linecap:round;stroke-linejoin:round"
         aria-label="S" /></g><g
       id="g11"><rect
         style="fill:#ffffff;stroke:#272822;stroke-width:2;stroke-linecap:round;stroke-linejoin:round"
         id="rect2"
         width="45.958408"
         height="45.958408"
         x="294.16302"
         y="76.14727" /><path
         d="m 317.13123,88.630052 -3.0555,13.431018 h 6.13299 z m -3.95676,-5.935148 h 7.93551 l 8.85876,32.819176 h -6.4847 l -2.02235,-8.11137 h -8.6829 l -1.97838,8.11137 h -6.4847 z"
         id="text7"
         style="font-weight:bold;font-size:45.0192px;font-family:'Meslo LG L';-inkscape-font-specification:'Meslo LG L, Bold';stroke-width:2;stroke-linecap:round;stroke-linejoin:round"
         aria-label="A" /></g><g
       id="g12"><rect
         style="fill:#ffffff;stroke:#272822;stroke-width:2;stroke-linecap:round;stroke-linejoin:round"
         id="rect3"
         width="45.958408"
         height="45.958408"
         x="352.39581"
         y="76.14727" /><path
         d="m 373.03393,101.11585 q -4.902,-1.868477 -6.63858,-3.912806 -1.73658,-2.06631 -1.73658,-5.539471 0,-4.462353 2.85767,-7.012268 2.85766,-2.549916 7.84758,-2.549916 2.26415,0 4.5283,0.527569 2.26415,0.505587 4.48433,1.51676 v 6.330825 q -2.08829,-1.472796 -4.24253,-2.242167 -2.15424,-0.769371 -4.26451,-0.769371 -2.35208,0 -3.60506,0.945227 -1.25297,0.945227 -1.25297,2.70379 0,1.362886 0.90126,2.264149 0.92325,0.879281 3.82488,1.956401 l 2.79171,1.055137 q 3.95677,1.450814 5.82524,3.846851 1.86847,2.39605 1.86847,6.04506 0,4.96794 -2.94559,7.42993 -2.92361,2.44001 -8.85876,2.44001 -2.44,0 -4.90199,-0.59352 -2.44001,-0.57153 -4.72614,-1.7146 v -6.70452 q 2.59388,1.84649 5.01191,2.74776 2.44,0.90126 4.81406,0.90126 2.39604,0 3.71496,-1.07712 1.31893,-1.0991 1.31893,-3.0555 0,-1.4728 -0.87928,-2.5719 -0.87929,-1.12108 -2.54992,-1.75856 z"
         id="text8"
         style="font-weight:bold;font-size:45.0192px;font-family:'Meslo LG L';-inkscape-font-specification:'Meslo LG L, Bold';stroke-width:2;stroke-linecap:round;stroke-linejoin:round"
         aria-label="S" /></g><g
       id="g13"><rect
         style="fill:#ffffff;stroke:#272822;stroke-width:2;stroke-linecap:round;stroke-linejoin:round"
         id="rect4"
         width="45.958408"
         height="45.958408"
         x="410.62863"
         y="76.14727" /><path
         d="m 431.2008,101.11585 q -4.902,-1.868477 -6.63858,-3.912806 -1.73658,-2.06631 -1.73658,-5.539471 0,-4.462353 2.85767,-7.012268 2.85766,-2.549916 7.84758,-2.549916 2.26415,0 4.5283,0.527569 2.26415,0.505587 4.48433,1.51676 v 6.330825 q -2.08829,-1.472796 -4.24253,-2.242167 -2.15424,-0.769371 -4.26451,-0.769371 -2.35208,0 -3.60506,0.945227 -1.25297,0.945227 -1.25297,2.70379 0,1.362886 0.90126,2.264149 0.92325,0.879281 3.82488,1.956401 l 2.79171,1.055137 q 3.95677,1.450814 5.82524,3.846851 1.86847,2.39605 1.86847,6.04506 0,4.96794 -2.94559,7.42993 -2.92361,2.44001 -8.85876,2.44001 -2.44,0 -4.90199,-0.59352 -2.44,-0.57153 -4.72614,-1.7146 v -6.70452 q 2.59388,1.84649 5.01191,2.74776 2.44,0.90126 4.81406,0.90126 2.39604,0 3.71496,-1.07712 1.31893,-1.0991 1.31893,-3.0555 0,-1.4728 -0.87928,-2.5719 -0.87929,-1.12108 -2.54992,-1.75856 z"
         id="text9"
         style="font-weight:bold;font-size:45.0192px;font-family:'Meslo LG L';-inkscape-font-specification:'Meslo LG L, Bold';stroke-width:2;stroke-linecap:round;stroke-linejoin:round"
         aria-label="S" /></g><g
       id="color_s1"
       class="fragment fade-in"
       transform="translate(58.232819)"><rect
         style="fill:#a6e22e;stroke:#272822;stroke-width:2;stroke-linecap:round;stroke-linejoin:round"
         id="rect16"
         width="45.958408"
         height="45.958408"
         x="352.39581"
         y="76.14727" /><path
         d="m 373.03393,101.11585 q -4.902,-1.868477 -6.63858,-3.912806 -1.73658,-2.06631 -1.73658,-5.539471 0,-4.462353 2.85767,-7.012268 2.85766,-2.549916 7.84758,-2.549916 2.26415,0 4.5283,0.527569 2.26415,0.505587 4.48433,1.51676 v 6.330825 q -2.08829,-1.472796 -4.24253,-2.242167 -2.15424,-0.769371 -4.26451,-0.769371 -2.35208,0 -3.60506,0.945227 -1.25297,0.945227 -1.25297,2.70379 0,1.362886 0.90126,2.264149 0.92325,0.879281 3.82488,1.956401 l 2.79171,1.055137 q 3.95677,1.450814 5.82524,3.846851 1.86847,2.39605 1.86847,6.04506 0,4.96794 -2.94559,7.42993 -2.92361,2.44001 -8.85876,2.44001 -2.44,0 -4.90199,-0.59352 -2.44001,-0.57153 -4.72614,-1.7146 v -6.70452 q 2.59388,1.84649 5.01191,2.74776 2.44,0.90126 4.81406,0.90126 2.39604,0 3.71496,-1.07712 1.31893,-1.0991 1.31893,-3.0555 0,-1.4728 -0.87928,-2.5719 -0.87929,-1.12108 -2.54992,-1.75856 z"
         id="text16"
         style="font-weight:bold;font-size:45.0192px;font-family:'Meslo LG L';-inkscape-font-specification:'Meslo LG L, Bold';stroke-width:2;stroke-linecap:round;stroke-linejoin:round"
         aria-label="S" /></g><g
       id="color_s2"
       class="fragment fade-in"><rect
         style="fill:#ffe792;stroke:#272822;stroke-width:2;stroke-linecap:round;stroke-linejoin:round"
         id="rect22"
         width="45.958408"
         height="45.958408"
         x="235.93024"
         y="76.14727" /><path
         d="m 256.56835,101.13783 q -4.90199,-1.868476 -6.63857,-3.912805 -1.73658,-2.066311 -1.73658,-5.539472 0,-4.462352 2.85766,-7.012268 2.85766,-2.549916 7.84758,-2.549916 2.26415,0 4.5283,0.527569 2.26415,0.505587 4.48434,1.51676 v 6.330825 q -2.0883,-1.472796 -4.24253,-2.242167 -2.15424,-0.769371 -4.26452,-0.769371 -2.35208,0 -3.60505,0.945227 -1.25298,0.945228 -1.25298,2.70379 0,1.362886 0.90127,2.264149 0.92324,0.879282 3.82487,1.956401 l 2.79172,1.055138 q 3.95676,1.450814 5.82524,3.84686 1.86847,2.39604 1.86847,6.04505 0,4.96794 -2.94559,7.42993 -2.92361,2.44001 -8.85876,2.44001 -2.44001,0 -4.902,-0.59352 -2.44,-0.57153 -4.72613,-1.7146 v -6.70452 q 2.59388,1.84649 5.0119,2.74776 2.44001,0.90126 4.81407,0.90126 2.39604,0 3.71496,-1.07712 1.31892,-1.0991 1.31892,-3.0555 0,-1.4728 -0.87928,-2.5719 -0.87928,-1.12108 -2.54992,-1.75856 z"
         id="text22"
         style="font-weight:bold;font-size:45.0192px;font-family:'Meslo LG L';-inkscape-font-specification:'Meslo LG L, Bold';stroke-width:2;stroke-linecap:round;stroke-linejoin:round"
         aria-label="S" /></g><g
       id="color_a"
       class="fragment fade-in"><rect
         style="fill:#ffe792;stroke:#272822;stroke-width:2;stroke-linecap:round;stroke-linejoin:round"
         id="rect23"
         width="45.958408"
         height="45.958408"
         x="294.16302"
         y="76.14727" /><path
         d="m 317.13123,88.630052 -3.0555,13.431018 h 6.13299 z m -3.95676,-5.935148 h 7.93551 l 8.85876,32.819176 h -6.4847 l -2.02235,-8.11137 h -8.6829 l -1.97838,8.11137 h -6.4847 z"
         id="text23"
         style="font-weight:bold;font-size:45.0192px;font-family:'Meslo LG L';-inkscape-font-specification:'Meslo LG L, Bold';stroke-width:2;stroke-linecap:round;stroke-linejoin:round"
         aria-label="A" /></g><g
       id="color_s3"
       class="fragment fade-in"><rect
         style="fill:#ffe792;stroke:#272822;stroke-width:2;stroke-linecap:round;stroke-linejoin:round"
         id="rect20"
         width="45.958408"
         height="45.958408"
         x="352.39581"
         y="76.14727" /><path
         d="m 373.03393,101.11585 q -4.902,-1.868477 -6.63858,-3.912806 -1.73658,-2.06631 -1.73658,-5.539471 0,-4.462353 2.85767,-7.012268 2.85766,-2.549916 7.84758,-2.549916 2.26415,0 4.5283,0.527569 2.26415,0.505587 4.48433,1.51676 v 6.330825 q -2.08829,-1.472796 -4.24253,-2.242167 -2.15424,-0.769371 -4.26451,-0.769371 -2.35208,0 -3.60506,0.945227 -1.25297,0.945227 -1.25297,2.70379 0,1.362886 0.90126,2.264149 0.92325,0.879281 3.82488,1.956401 l 2.79171,1.055137 q 3.95677,1.450814 5.82524,3.846851 1.86847,2.39605 1.86847,6.04506 0,4.96794 -2.94559,7.42993 -2.92361,2.44001 -8.85876,2.44001 -2.44,0 -4.90199,-0.59352 -2.44001,-0.57153 -4.72614,-1.7146 v -6.70452 q 2.59388,1.84649 5.01191,2.74776 2.44,0.90126 4.81406,0.90126 2.39604,0 3.71496,-1.07712 1.31893,-1.0991 1.31893,-3.0555 0,-1.4728 -0.87928,-2.5719 -0.87929,-1.12108 -2.54992,-1.75856 z"
         id="text20"
         style="font-weight:bold;font-size:45.0192px;font-family:'Meslo LG L';-inkscape-font-specification:'Meslo LG L, Bold';stroke-width:2;stroke-linecap:round;stroke-linejoin:round"
         aria-label="S" /></g><g
       id="g21"><rect
         style="fill:#ffffff;stroke:#272822;stroke-width:2;stroke-linecap:round;stroke-linejoin:round"
         id="rect21"
         width="45.958408"
         height="45.958408"
         x="468.86142"
         y="76.14727" /><path
         d="m 478.46455,82.716884 h 6.99029 l 6.37479,13.189219 6.39677,-13.189219 h 6.99028 l -10.13371,19.893736 v 12.92544 h -6.4847 v -12.92544 z"
         id="text21"
         style="font-weight:bold;font-size:45.0192px;font-family:'Meslo LG L';-inkscape-font-specification:'Meslo LG L, Bold';stroke-width:2;stroke-linecap:round;stroke-linejoin:round"
         aria-label="Y" /></g><g
       id="g14"><rect
         style="fill:#ffffff;stroke:#272822;stroke-width:2;stroke-linecap:round;stroke-linejoin:round"
         id="rect5"
         width="45.958408"
         height="45.958408"
         x="468.86142"
         y="76.14727" /><path
         d="m 478.46455,82.716884 h 6.99029 l 6.37479,13.189219 6.39677,-13.189219 h 6.99028 l -10.13371,19.893736 v 12.92544 h -6.4847 v -12.92544 z"
         id="text10"
         style="font-weight:bold;font-size:45.0192px;font-family:'Meslo LG L';-inkscape-font-specification:'Meslo LG L, Bold';stroke-width:2;stroke-linecap:round;stroke-linejoin:round"
         aria-label="Y" /></g><path
       style="fill:#f92672;stroke:#000000;stroke-width:2;stroke-linecap:round;stroke-linejoin:round"
       d="m 365.4561,99.456951 -12.7791,-15.40341 14.43141,-11.73617 9.76949,15.29764 13.08824,-14.626 9.63757,13.7116 -13.93864,12.68167 11.46953,17.313209 -10.34754,7.78934 -11.35746,-13.01871 -11.79942,12.43487 -9.50395,-8.17231 z"
       id="wrong"
       class="fragment fade-in" /></g></svg>
