<?xml version="1.0" encoding="UTF-8" standalone="no"?>
<!-- Created with Inkscape (http://www.inkscape.org/) -->

<svg
   width="280.88959mm"
   height="109.48032mm"
   viewBox="0 0 280.88959 109.48032"
   version="1.1"
   id="svg1"
   xml:space="preserve"
   inkscape:version="1.3 (0e150ed6c4, 2023-07-21)"
   sodipodi:docname="wordle_wrong1_embeds.svg"
   xmlns:inkscape="http://www.inkscape.org/namespaces/inkscape"
   xmlns:sodipodi="http://sodipodi.sourceforge.net/DTD/sodipodi-0.dtd"
   xmlns="http://www.w3.org/2000/svg"
   xmlns:svg="http://www.w3.org/2000/svg"><sodipodi:namedview
     id="namedview1"
     pagecolor="#424242"
     bordercolor="#000000"
     borderopacity="0.25"
     inkscape:showpageshadow="2"
     inkscape:pageopacity="0.0"
     inkscape:pagecheckerboard="0"
     inkscape:deskcolor="#d1d1d1"
     inkscape:document-units="mm"
     inkscape:zoom="0.49764326"
     inkscape:cx="349.64806"
     inkscape:cy="173.81929"
     inkscape:window-width="1465"
     inkscape:window-height="1283"
     inkscape:window-x="1627"
     inkscape:window-y="91"
     inkscape:window-maximized="1"
     inkscape:current-layer="layer1" /><defs
     id="defs1" /><g
     inkscape:label="Layer 1"
     inkscape:groupmode="layer"
     id="layer1"
     transform="translate(-234.93024,-75.14727)"><path
       d="m 327.32731,182.90613 q -1.67364,0.86073 -3.51464,1.29109 -1.84101,0.43036 -3.87328,0.43036 -7.22056,0 -11.02211,-4.75791 -3.80156,-4.75792 -3.80156,-13.74775 0,-9.01375 3.80156,-13.77166 3.80155,-4.75792 11.02211,-4.75792 2.03227,0 3.89718,0.43036 1.86492,0.43037 3.49074,1.2911 v 7.84219 q -1.8171,-1.67364 -3.53855,-2.43873 -1.69755,-0.789 -3.51465,-0.789 -3.87328,0 -5.85773,3.08428 -1.96055,3.06037 -1.96055,9.10938 0,6.0251 1.96055,9.10938 1.98445,3.06036 5.85773,3.06036 1.8171,0 3.51465,-0.76509 1.72145,-0.789 3.53855,-2.46264 z m 6.90974,-34.66824 h 7.05319 v 13.60429 h 8.82247 v -13.60429 h 7.05319 v 35.69633 h -7.05319 v -15.87566 h -8.82247 v 15.87566 h -7.05319 z m 40.93243,5.69037 q -2.70173,0 -3.94501,2.893 -1.24327,2.8691 -1.24327,9.30066 0,6.40764 1.24327,9.30065 1.24328,2.86909 3.94501,2.86909 2.72564,0 3.96892,-2.86909 1.24327,-2.89301 1.24327,-9.30065 0,-6.43156 -1.24327,-9.30066 -1.24328,-2.893 -3.96892,-2.893 z m -12.52838,12.19366 q 0,-9.1572 3.156,-13.84339 3.17992,-4.68619 9.37238,-4.68619 6.21637,0 9.37238,4.68619 3.17991,4.68619 3.17991,13.84339 0,9.13328 -3.17991,13.81947 -3.15601,4.68619 -9.37238,4.68619 -6.19246,0 -9.37238,-4.68619 -3.156,-4.68619 -3.156,-13.81947 z m 29.3365,-17.88403 h 8.41602 l 4.25582,15.66048 4.23192,-15.66048 h 8.46383 v 35.69633 h -6.07292 V 155.3389 l -3.77764,15.61266 h -5.61865 l -3.82546,-15.61266 v 28.59532 h -6.07292 z m 38.35025,5.92946 v 10.4722 h 2.893 q 3.46683,0 4.85356,-1.17155 1.41063,-1.17154 1.41063,-4.06455 0,-2.893 -1.41063,-4.06455 -1.38673,-1.17155 -4.85356,-1.17155 z m -7.0532,-5.92946 h 9.6832 q 7.38792,0 10.61566,2.63 3.25164,2.63001 3.25164,8.53556 0,5.90556 -3.25164,8.53556 -3.22774,2.63001 -10.61566,2.63001 h -2.63 v 13.3652 h -7.0532 z"
       id="text5"
       style="font-weight:bold;font-size:48.9659px;font-family:'Meslo LG L';-inkscape-font-specification:'Meslo LG L, Bold';fill:#f8f8f2;stroke-width:2;stroke-linecap:round;stroke-linejoin:round"
       aria-label="CHOMP" /><g
       id="g10"><rect
         style="fill:#ffffff;stroke:#272822;stroke-width:2;stroke-linecap:round;stroke-linejoin:round"
         id="rect1"
         width="45.958408"
         height="45.958408"
         x="235.93024"
         y="76.14727" /><path
         d="m 245.35751,82.716884 h 5.67137 l 2.35207,24.092306 2.83569,-15.58526 h 5.38559 l 3.29731,15.58526 1.84649,-24.092306 h 5.71533 l -3.78091,32.819176 h -6.04506 l -3.73695,-17.233916 -3.49514,17.233916 h -6.00109 z"
         id="text6"
         style="font-weight:bold;font-size:45.0192px;font-family:'Meslo LG L';-inkscape-font-specification:'Meslo LG L, Bold';stroke-width:2;stroke-linecap:round;stroke-linejoin:round"
         aria-label="W" /></g><g
       id="g11"><rect
         style="fill:#ffffff;stroke:#272822;stroke-width:2;stroke-linecap:round;stroke-linejoin:round"
         id="rect2"
         width="45.958408"
         height="45.958408"
         x="294.16302"
         y="76.14727" /><path
         d="m 317.13123,87.926627 q -2.48397,0 -3.62703,2.659826 -1.14307,2.637844 -1.14307,8.55101 0,5.891187 1.14307,8.551007 1.14306,2.63785 3.62703,2.63785 2.50595,0 3.64902,-2.63785 1.14307,-2.65982 1.14307,-8.551007 0,-5.913166 -1.14307,-8.55101 -1.14307,-2.659826 -3.64902,-2.659826 z m -11.51858,11.210836 q 0,-8.419118 2.90163,-12.727596 2.92361,-4.308478 8.61695,-4.308478 5.71533,0 8.61696,4.308478 2.92361,4.308478 2.92361,12.727596 0,8.397137 -2.92361,12.705617 -2.90163,4.30848 -8.61696,4.30848 -5.69334,0 -8.61695,-4.30848 -2.90163,-4.30848 -2.90163,-12.705617 z"
         id="text7"
         style="font-weight:bold;font-size:45.0192px;font-family:'Meslo LG L';-inkscape-font-specification:'Meslo LG L, Bold';stroke-width:2;stroke-linecap:round;stroke-linejoin:round"
         aria-label="O" /></g><g
       id="g12"><rect
         style="fill:#ffffff;stroke:#272822;stroke-width:2;stroke-linecap:round;stroke-linejoin:round"
         id="rect3"
         width="45.958408"
         height="45.958408"
         x="352.39581"
         y="76.14727" /><path
         d="m 375.36402,87.926627 q -2.48397,0 -3.62703,2.659826 -1.14307,2.637844 -1.14307,8.55101 0,5.891187 1.14307,8.551007 1.14306,2.63785 3.62703,2.63785 2.50595,0 3.64902,-2.63785 1.14306,-2.65982 1.14306,-8.551007 0,-5.913166 -1.14306,-8.55101 -1.14307,-2.659826 -3.64902,-2.659826 z m -11.51858,11.210836 q 0,-8.419118 2.90162,-12.727596 2.92361,-4.308478 8.61696,-4.308478 5.71533,0 8.61696,4.308478 2.92361,4.308478 2.92361,12.727596 0,8.397137 -2.92361,12.705617 -2.90163,4.30848 -8.61696,4.30848 -5.69335,0 -8.61696,-4.30848 -2.90162,-4.30848 -2.90162,-12.705617 z"
         id="text8"
         style="font-weight:bold;font-size:45.0192px;font-family:'Meslo LG L';-inkscape-font-specification:'Meslo LG L, Bold';stroke-width:2;stroke-linecap:round;stroke-linejoin:round"
         aria-label="O" /></g><g
       id="g13"><rect
         style="fill:#ffffff;stroke:#272822;stroke-width:2;stroke-linecap:round;stroke-linejoin:round"
         id="rect4"
         width="45.958408"
         height="45.958408"
         x="410.62863"
         y="76.14727" /><path
         d="m 431.2008,101.11585 q -4.902,-1.868477 -6.63858,-3.912806 -1.73658,-2.06631 -1.73658,-5.539471 0,-4.462353 2.85767,-7.012268 2.85766,-2.549916 7.84758,-2.549916 2.26415,0 4.5283,0.527569 2.26415,0.505587 4.48433,1.51676 v 6.330825 q -2.08829,-1.472796 -4.24253,-2.242167 -2.15424,-0.769371 -4.26451,-0.769371 -2.35208,0 -3.60506,0.945227 -1.25297,0.945227 -1.25297,2.70379 0,1.362886 0.90126,2.264149 0.92325,0.879281 3.82488,1.956401 l 2.79171,1.055137 q 3.95677,1.450814 5.82524,3.846851 1.86847,2.39605 1.86847,6.04506 0,4.96794 -2.94559,7.42993 -2.92361,2.44001 -8.85876,2.44001 -2.44,0 -4.90199,-0.59352 -2.44,-0.57153 -4.72614,-1.7146 v -6.70452 q 2.59388,1.84649 5.01191,2.74776 2.44,0.90126 4.81406,0.90126 2.39604,0 3.71496,-1.07712 1.31893,-1.0991 1.31893,-3.0555 0,-1.4728 -0.87928,-2.5719 -0.87929,-1.12108 -2.54992,-1.75856 z"
         id="text9"
         style="font-weight:bold;font-size:45.0192px;font-family:'Meslo LG L';-inkscape-font-specification:'Meslo LG L, Bold';stroke-width:2;stroke-linecap:round;stroke-linejoin:round"
         aria-label="S" /></g><g
       id="g14"><rect
         style="fill:#ffffff;stroke:#272822;stroke-width:2;stroke-linecap:round;stroke-linejoin:round"
         id="rect5"
         width="45.958408"
         height="45.958408"
         x="468.86142"
         y="76.14727" /><path
         d="m 481.30023,82.716884 h 6.4847 V 95.22466 h 8.11137 V 82.716884 h 6.4847 v 32.819176 h -6.4847 v -14.59607 h -8.11137 v 14.59607 h -6.4847 z"
         id="text10"
         style="font-weight:bold;font-size:45.0192px;font-family:'Meslo LG L';-inkscape-font-specification:'Meslo LG L, Bold';stroke-width:2;stroke-linecap:round;stroke-linejoin:round"
         aria-label="H" /></g><g
       id="color_w"
       class="fragment fade-in"><rect
         style="fill:#75715e;stroke:#272822;stroke-width:2;stroke-linecap:round;stroke-linejoin:round"
         id="rect14"
         width="45.958408"
         height="45.958408"
         x="235.93024"
         y="76.14727" /><path
         d="m 245.35751,82.716884 h 5.67137 l 2.35207,24.092306 2.83569,-15.58526 h 5.38559 l 3.29731,15.58526 1.84649,-24.092306 h 5.71533 l -3.78091,32.819176 h -6.04506 l -3.73695,-17.233916 -3.49514,17.233916 h -6.00109 z"
         id="text14"
         style="font-weight:bold;font-size:45.0192px;font-family:'Meslo LG L';-inkscape-font-specification:'Meslo LG L, Bold';stroke-width:2;stroke-linecap:round;stroke-linejoin:round"
         aria-label="W" /></g><g
       id="color_o1"
       class="fragment fade-in"><rect
         style="fill:#ffe792;stroke:#272822;stroke-width:2;stroke-linecap:round;stroke-linejoin:round"
         id="rect15"
         width="45.958408"
         height="45.958408"
         x="294.16302"
         y="76.14727" /><path
         d="m 317.13123,87.926627 q -2.48397,0 -3.62703,2.659826 -1.14307,2.637844 -1.14307,8.55101 0,5.891187 1.14307,8.551007 1.14306,2.63785 3.62703,2.63785 2.50595,0 3.64902,-2.63785 1.14307,-2.65982 1.14307,-8.551007 0,-5.913166 -1.14307,-8.55101 -1.14307,-2.659826 -3.64902,-2.659826 z m -11.51858,11.210836 q 0,-8.419118 2.90163,-12.727596 2.92361,-4.308478 8.61695,-4.308478 5.71533,0 8.61696,4.308478 2.92361,4.308478 2.92361,12.727596 0,8.397137 -2.92361,12.705617 -2.90163,4.30848 -8.61696,4.30848 -5.69334,0 -8.61695,-4.30848 -2.90163,-4.30848 -2.90163,-12.705617 z"
         id="text15"
         style="font-weight:bold;font-size:45.0192px;font-family:'Meslo LG L';-inkscape-font-specification:'Meslo LG L, Bold';stroke-width:2;stroke-linecap:round;stroke-linejoin:round"
         aria-label="O" /></g><g
       id="color_o2"
       class="fragment fade-in"><rect
         style="fill:#a6e22e;stroke:#272822;stroke-width:2;stroke-linecap:round;stroke-linejoin:round"
         id="rect16"
         width="45.958408"
         height="45.958408"
         x="352.39581"
         y="76.14727" /><path
         d="m 375.36402,87.926627 q -2.48397,0 -3.62703,2.659826 -1.14307,2.637844 -1.14307,8.55101 0,5.891187 1.14307,8.551007 1.14306,2.63785 3.62703,2.63785 2.50595,0 3.64902,-2.63785 1.14306,-2.65982 1.14306,-8.551007 0,-5.913166 -1.14306,-8.55101 -1.14307,-2.659826 -3.64902,-2.659826 z m -11.51858,11.210836 q 0,-8.419118 2.90162,-12.727596 2.92361,-4.308478 8.61696,-4.308478 5.71533,0 8.61696,4.308478 2.92361,4.308478 2.92361,12.727596 0,8.397137 -2.92361,12.705617 -2.90163,4.30848 -8.61696,4.30848 -5.69335,0 -8.61696,-4.30848 -2.90162,-4.30848 -2.90162,-12.705617 z"
         id="text16"
         style="font-weight:bold;font-size:45.0192px;font-family:'Meslo LG L';-inkscape-font-specification:'Meslo LG L, Bold';stroke-width:2;stroke-linecap:round;stroke-linejoin:round"
         aria-label="O" /></g><path
       style="fill:#f92672;stroke:#000000;stroke-width:2;stroke-linecap:round;stroke-linejoin:round"
       d="m 305.60768,99.613367 -12.7791,-15.40341 14.43141,-11.73617 9.76949,15.29764 13.08824,-14.626 9.63757,13.7116 -13.93864,12.68167 11.46953,17.313213 -10.34754,7.78934 -11.35746,-13.01871 -11.79942,12.43487 -9.50395,-8.17231 z"
       id="wrong"
       class="fragment fade-in" /></g></svg>
